<svg width="1682" height="856" viewBox="0 0 1682 856" fill="none" xmlns="http://www.w3.org/2000/svg">
<g clip-path="url(#clip0_0_1)">
<rect width="1682" height="929" fill="#111121"/>
<g opacity="0.8">
<g filter="url(#filter0_dd_0_1)">
<path d="M7199.93 2014.27L948.259 -325.256" stroke="#B7D8FF" stroke-width="2.40444"/>
<path d="M6870.89 2014.27L948.258 -325.256" stroke="#B7D8FF" stroke-width="2.40444"/>
<path d="M-1354.99 2014.27L948.258 -325.256" stroke="#B7D8FF" stroke-width="2.40444"/>
<path d="M3251.5 2014.27L948.258 -325.256" stroke="#B7D8FF" stroke-width="2.40444"/>
<path d="M-1025.95 2014.27L948.258 -325.256" stroke="#B7D8FF" stroke-width="2.40444"/>
<path d="M2922.47 2014.27L948.258 -325.256" stroke="#B7D8FF" stroke-width="2.40444"/>
<path d="M-38.8467 2014.27L948.259 -325.256" stroke="#B7D8FF" stroke-width="2.40444"/>
<path d="M1935.36 2014.27L948.258 -325.256" stroke="#B7D8FF" stroke-width="2.40444"/>
<path d="M290.188 2014.27L948.258 -325.256" stroke="#B7D8FF" stroke-width="2.40444"/>
<path d="M1606.33 2014.27L948.258 -325.256" stroke="#B7D8FF" stroke-width="2.40444"/>
<path d="M619.223 2014.27L948.258 -325.256" stroke="#B7D8FF" stroke-width="2.40444"/>
<path d="M948.259 2014.27V-325.256" stroke="#B7D8FF" stroke-width="2.40444"/>
<path d="M1277.29 2014.27L948.259 -325.256" stroke="#B7D8FF" stroke-width="2.40444"/>
<path d="M-696.918 2014.27L948.258 -325.256" stroke="#B7D8FF" stroke-width="2.40444"/>
<path d="M2593.43 2014.27L948.259 -325.256" stroke="#B7D8FF" stroke-width="2.40444"/>
<path d="M-367.882 2014.27L948.258 -325.256" stroke="#B7D8FF" stroke-width="2.40444"/>
<path d="M2264.4 2014.27L948.258 -325.256" stroke="#B7D8FF" stroke-width="2.40444"/>
<path d="M-2013.06 2014.27L948.258 -325.256" stroke="#B7D8FF" stroke-width="2.40444"/>
<path d="M3909.58 2014.27L948.259 -325.256" stroke="#B7D8FF" stroke-width="2.40444"/>
<path d="M-1684.02 2014.27L948.258 -325.256" stroke="#B7D8FF" stroke-width="2.40444"/>
<path d="M3580.54 2014.27L948.259 -325.256" stroke="#B7D8FF" stroke-width="2.40444"/>
<path d="M-2671.13 2014.27L948.259 -325.256" stroke="#B7D8FF" stroke-width="2.40444"/>
<path d="M4567.65 2014.27L948.259 -325.256" stroke="#B7D8FF" stroke-width="2.40444"/>
<path d="M-2342.09 2014.27L948.258 -325.256" stroke="#B7D8FF" stroke-width="2.40444"/>
<path d="M4238.61 2014.27L948.26 -325.256" stroke="#B7D8FF" stroke-width="2.40444"/>
<path d="M-3329.2 2014.27L948.259 -325.256" stroke="#B7D8FF" stroke-width="2.40444"/>
<path d="M5225.71 2014.27L948.257 -325.256" stroke="#B7D8FF" stroke-width="2.40444"/>
<path d="M-3000.16 2014.27L948.259 -325.256" stroke="#B7D8FF" stroke-width="2.40444"/>
<path d="M4896.68 2014.27L948.257 -325.256" stroke="#B7D8FF" stroke-width="2.40444"/>
<path d="M-3987.27 2014.27L948.257 -325.256" stroke="#B7D8FF" stroke-width="2.40444"/>
<path d="M5883.79 2014.27L948.262 -325.256" stroke="#B7D8FF" stroke-width="2.40444"/>
<path d="M-3658.23 2014.27L948.258 -325.256" stroke="#B7D8FF" stroke-width="2.40444"/>
<path d="M5554.75 2014.27L948.257 -325.256" stroke="#B7D8FF" stroke-width="2.40444"/>
<path d="M6541.86 2014.27L948.258 -325.256" stroke="#B7D8FF" stroke-width="2.40444"/>
<path d="M-4316.3 2014.27L948.258 -325.256" stroke="#B7D8FF" stroke-width="2.40444"/>
<path d="M6212.82 2014.27L948.258 -325.256" stroke="#B7D8FF" stroke-width="2.40444"/>
<path d="M-4809.86 855.167H7693.48" stroke="#B7D8FF" stroke-width="2.40444"/>
<path d="M-4809.86 832.207H7693.48" stroke="#B7D8FF" stroke-width="2.40444"/>
<path d="M-4809.86 810.066H7693.48" stroke="#B7D8FF" stroke-width="2.40444"/>
<path d="M-4809.86 788.745H7693.48" stroke="#B7D8FF" stroke-width="2.40444"/>
<path d="M-4809.86 768.245H7693.48" stroke="#B7D8FF" stroke-width="2.40444"/>
<path d="M-4809.86 748.564H7693.48" stroke="#B7D8FF" stroke-width="2.40444"/>
<path d="M-4809.86 729.703H7693.48" stroke="#B7D8FF" stroke-width="2.40444"/>
<path d="M-4809.86 711.663H7693.48" stroke="#B7D8FF" stroke-width="2.40444"/>
<path d="M-4809.86 694.443H7693.48" stroke="#B7D8FF" stroke-width="2.40444"/>
<path d="M-4809.86 678.042H7693.48" stroke="#B7D8FF" stroke-width="2.40444"/>
<path d="M-4809.86 662.461H7693.48" stroke="#B7D8FF" stroke-width="2.40444"/>
<path d="M-4809.86 647.702H7693.48" stroke="#B7D8FF" stroke-width="2.40444"/>
<path d="M-4809.86 633.761H7693.48" stroke="#B7D8FF" stroke-width="2.40444"/>
<path d="M-4809.86 620.641H7693.48" stroke="#B7D8FF" stroke-width="2.40444"/>
<path d="M-4809.86 608.341H7693.48" stroke="#B7D8FF" stroke-width="2.40444"/>
<path d="M-4809.86 596.86H7693.48" stroke="#B7D8FF" stroke-width="2.40444"/>
<path d="M-4809.86 586.2H7693.48" stroke="#B7D8FF" stroke-width="2.40444"/>
<path d="M-4809.86 576.36H7693.48" stroke="#B7D8FF" stroke-width="2.40444"/>
<path d="M-4809.86 567.339H7693.48" stroke="#B7D8FF" stroke-width="2.40444"/>
<path d="M-4809.86 559.139H7693.48" stroke="#B7D8FF" stroke-width="2.40444"/>
<path d="M-4809.86 551.759H7693.48" stroke="#B7D8FF" stroke-width="2.40444"/>
<path d="M-4809.86 545.198H7693.48" stroke="#B7D8FF" stroke-width="2.40444"/>
<path d="M-4809.86 539.459H7693.48" stroke="#B7D8FF" stroke-width="2.40444"/>
<path d="M-4809.86 534.539H7693.48" stroke="#B7D8FF" stroke-width="2.40444"/>
<path d="M-4809.86 530.438H7693.48" stroke="#B7D8FF" stroke-width="2.40444"/>
<path d="M-4809.86 527.158H7693.48" stroke="#B7D8FF" stroke-width="2.40444"/>
<path d="M-4809.86 524.698H7693.48" stroke="#B7D8FF" stroke-width="2.40444"/>
<path d="M-4809.86 523.058H7693.48" stroke="#B7D8FF" stroke-width="2.40444"/>
<path d="M-4809.86 522.238H7693.48" stroke="#B7D8FF" stroke-width="2.40444"/>
</g>
<rect width="1928" height="1082" transform="matrix(1 0 0 -1 -7.99951 971)" fill="url(#paint0_linear_0_1)"/>
<rect width="1990" height="2144" transform="matrix(-1 -8.74228e-08 -8.74228e-08 1 1951 190)" fill="url(#paint1_linear_0_1)" fill-opacity="0.2"/>
<rect width="1928" height="2143" transform="matrix(-1 -8.74228e-08 -8.74228e-08 1 1920 597)" fill="url(#paint2_linear_0_1)"/>
<rect y="378" width="1682" height="130" fill="url(#paint3_linear_0_1)"/>
</g>
<g clip-path="url(#clip1_0_1)">
<g filter="url(#filter1_dd_0_1)">
<path d="M-4231.65 -1024L968.439 922" stroke="#B7D8FF" stroke-width="2"/>
<path d="M-3957.96 -1024L968.439 922" stroke="#B7D8FF" stroke-width="2"/>
<path d="M2884.26 -1024L968.44 922" stroke="#B7D8FF" stroke-width="2"/>
<path d="M-947.384 -1024L968.44 922" stroke="#B7D8FF" stroke-width="2"/>
<path d="M2610.57 -1024L968.439 922" stroke="#B7D8FF" stroke-width="2"/>
<path d="M-673.695 -1024L968.44 922" stroke="#B7D8FF" stroke-width="2"/>
<path d="M1789.51 -1024L968.439 922" stroke="#B7D8FF" stroke-width="2"/>
<path d="M147.373 -1024L968.44 922" stroke="#B7D8FF" stroke-width="2"/>
<path d="M1515.82 -1024L968.44 922" stroke="#B7D8FF" stroke-width="2"/>
<path d="M421.062 -1024L968.44 922" stroke="#B7D8FF" stroke-width="2"/>
<path d="M1242.13 -1024L968.44 922" stroke="#B7D8FF" stroke-width="2"/>
<path d="M968.439 -1024L968.439 922" stroke="#B7D8FF" stroke-width="2"/>
<path d="M694.75 -1024L968.439 922" stroke="#B7D8FF" stroke-width="2"/>
<path d="M2336.89 -1024L968.44 922" stroke="#B7D8FF" stroke-width="2"/>
<path d="M-400.006 -1024L968.439 922" stroke="#B7D8FF" stroke-width="2"/>
<path d="M2063.2 -1024L968.44 922" stroke="#B7D8FF" stroke-width="2"/>
<path d="M-126.316 -1024L968.44 922" stroke="#B7D8FF" stroke-width="2"/>
<path d="M3431.64 -1024L968.44 922" stroke="#B7D8FF" stroke-width="2"/>
<path d="M-1494.76 -1024L968.439 922" stroke="#B7D8FF" stroke-width="2"/>
<path d="M3157.95 -1024L968.439 922" stroke="#B7D8FF" stroke-width="2"/>
<path d="M-1221.07 -1024L968.44 922" stroke="#B7D8FF" stroke-width="2"/>
<path d="M3979.02 -1024L968.439 922" stroke="#B7D8FF" stroke-width="2"/>
<path d="M-2042.14 -1024L968.438 922" stroke="#B7D8FF" stroke-width="2"/>
<path d="M3705.33 -1024L968.44 922" stroke="#B7D8FF" stroke-width="2"/>
<path d="M-1768.45 -1024L968.438 922" stroke="#B7D8FF" stroke-width="2"/>
<path d="M4526.4 -1024L968.44 922" stroke="#B7D8FF" stroke-width="2"/>
<path d="M-2589.52 -1024L968.44 922" stroke="#B7D8FF" stroke-width="2"/>
<path d="M4252.71 -1024L968.44 922" stroke="#B7D8FF" stroke-width="2"/>
<path d="M-2315.83 -1024L968.44 922" stroke="#B7D8FF" stroke-width="2"/>
<path d="M5073.78 -1024L968.441 922" stroke="#B7D8FF" stroke-width="2"/>
<path d="M-3136.9 -1024L968.438 922" stroke="#B7D8FF" stroke-width="2"/>
<path d="M4800.09 -1024L968.44 922" stroke="#B7D8FF" stroke-width="2"/>
<path d="M-2863.21 -1024L968.44 922" stroke="#B7D8FF" stroke-width="2"/>
<path d="M-3684.28 -1024L968.439 922" stroke="#B7D8FF" stroke-width="2"/>
<path d="M5347.47 -1024L968.44 922" stroke="#B7D8FF" stroke-width="2"/>
<path d="M-3410.59 -1024L968.44 922" stroke="#B7D8FF" stroke-width="2"/>
<path d="M5758 12.4341L-4642.19 12.4332" stroke="#B7D8FF" stroke-width="2"/>
<path d="M5758 28.8046L-4642.19 28.8037" stroke="#B7D8FF" stroke-width="2"/>
<path d="M5758 44.4929L-4642.19 44.4919" stroke="#B7D8FF" stroke-width="2"/>
<path d="M5758 59.4988L-4642.19 59.4979" stroke="#B7D8FF" stroke-width="2"/>
<path d="M5758 73.822L-4642.19 73.8211" stroke="#B7D8FF" stroke-width="2"/>
<path d="M5758 87.4645L-4642.19 87.4636" stroke="#B7D8FF" stroke-width="2"/>
<path d="M5758 100.424L-4642.19 100.423" stroke="#B7D8FF" stroke-width="2"/>
<path d="M5758 112.701L-4642.19 112.7" stroke="#B7D8FF" stroke-width="2"/>
<path d="M5758 124.297L-4642.19 124.296" stroke="#B7D8FF" stroke-width="2"/>
<path d="M5758 135.21L-4642.19 135.209" stroke="#B7D8FF" stroke-width="2"/>
<path d="M5758 145.441L-4642.19 145.44" stroke="#B7D8FF" stroke-width="2"/>
<path d="M5758 154.991L-4642.19 154.99" stroke="#B7D8FF" stroke-width="2"/>
<path d="M5758 163.858L-4642.19 163.857" stroke="#B7D8FF" stroke-width="2"/>
<path d="M5758 172.043L-4642.19 172.042" stroke="#B7D8FF" stroke-width="2"/>
<path d="M5758 179.546L-4642.19 179.545" stroke="#B7D8FF" stroke-width="2"/>
<path d="M5758 186.366L-4642.19 186.366" stroke="#B7D8FF" stroke-width="2"/>
<path d="M5758 192.505L-4642.19 192.505" stroke="#B7D8FF" stroke-width="2"/>
<path d="M5758 197.962L-4642.19 197.962" stroke="#B7D8FF" stroke-width="2"/>
<path d="M5758 202.737L-4642.19 202.736" stroke="#B7D8FF" stroke-width="2"/>
<path d="M5758 206.829L-4642.19 206.828" stroke="#B7D8FF" stroke-width="2"/>
<path d="M5758 210.24L-4642.19 210.239" stroke="#B7D8FF" stroke-width="2"/>
<path d="M5758 212.969L-4642.19 212.968" stroke="#B7D8FF" stroke-width="2"/>
<path d="M5758 215.015L-4642.19 215.014" stroke="#B7D8FF" stroke-width="2"/>
<path d="M5758 216.379L-4642.19 216.378" stroke="#B7D8FF" stroke-width="2"/>
<path d="M5758 217.061L-4642.19 217.06" stroke="#B7D8FF" stroke-width="2"/>
</g>
<rect width="1682" height="900" transform="matrix(-1 -8.74228e-08 -8.74228e-08 1 1682 -156)" fill="url(#paint4_linear_0_1)"/>
<rect width="1682" height="1783" transform="matrix(1 1.74846e-07 1.74846e-07 -1 0 155)" fill="url(#paint5_linear_0_1)"/>
<rect width="1682" height="1783" transform="matrix(1 1.74846e-07 1.74846e-07 -1 0 493)" fill="url(#paint6_linear_0_1)" fill-opacity="0.2"/>
</g>
<rect y="-5" width="1682" height="383" fill="url(#paint7_linear_0_1)"/>
<rect y="426" width="1682" height="503" fill="url(#paint8_linear_0_1)"/>
</g>
<path d="M1600.69 600.969L1643.92 560.578L1702.76 566.816L1659.52 607.206L1600.69 600.969Z" fill="url(#paint9_linear_0_1)"/>
<path d="M1723.57 630.354L1702.79 567.084L1702.67 566.737L1659.44 607.054L1680.64 670.419L1723.57 630.354Z" fill="url(#paint10_linear_0_1)"/>
<path d="M1622.22 664.187L1600.75 601.149L1600.63 600.802L1659.42 606.984L1680.62 670.349L1622.22 664.187Z" fill="url(#paint11_linear_0_1)"/>
<path d="M1536.79 578.362L1580.02 537.972L1638.86 544.209L1595.63 584.6L1536.79 578.362Z" fill="url(#paint12_linear_0_1)"/>
<path d="M1659.67 607.748L1638.89 544.477L1638.77 544.13L1595.54 584.447L1616.75 647.812L1659.67 607.748Z" fill="url(#paint13_linear_0_1)"/>
<path d="M1558.33 641.581L1536.85 578.543L1536.73 578.196L1595.52 584.377L1616.72 647.742L1558.33 641.581Z" fill="url(#paint14_linear_0_1)"/>
<g opacity="0.9">
<path d="M8.7373 155.021L44.9552 123.48L92.5086 130.207L56.2907 161.748L8.7373 155.021Z" fill="url(#paint15_linear_0_1)"/>
<path d="M107.593 182.341L92.5249 130.426L92.4405 130.141L56.2291 161.622L71.6334 213.626L107.593 182.341Z" fill="url(#paint16_linear_0_1)"/>
<path d="M24.4188 206.916L8.78105 155.17L8.69669 154.885L56.212 161.565L71.6163 213.569L24.4188 206.916Z" fill="url(#paint17_linear_0_1)"/>
<path d="M-27.2754 186.134L8.94251 154.593L56.4959 161.319L20.278 192.86L-27.2754 186.134Z" fill="url(#paint18_linear_0_1)"/>
<path d="M71.5804 213.453L56.5122 161.538L56.4278 161.253L20.2164 192.734L35.6207 244.738L71.5804 213.453Z" fill="url(#paint19_linear_0_1)"/>
<path d="M-11.5939 238.028L-27.2316 186.282L-27.316 185.997L20.1993 192.677L35.6036 244.681L-11.5939 238.028Z" fill="url(#paint20_linear_0_1)"/>
<path d="M55.8818 161.502L92.0997 129.961L139.653 136.687L103.435 168.228L55.8818 161.502Z" fill="url(#paint21_linear_0_1)"/>
<path d="M154.738 188.821L139.669 136.906L139.585 136.621L103.374 168.102L118.778 220.106L154.738 188.821Z" fill="url(#paint22_linear_0_1)"/>
<path d="M71.5634 213.396L55.9256 161.65L55.8412 161.365L103.357 168.045L118.761 220.049L71.5634 213.396Z" fill="url(#paint23_linear_0_1)"/>
</g>
<g filter="url(#filter2_f_0_1)">
<path d="M103.522 500.75L129.977 496.298L150.662 513.381L124.207 517.832L103.522 500.75Z" fill="url(#paint24_linear_0_1)"/>
<path d="M142.631 542.613L150.606 513.49L150.649 513.329L124.215 517.754L116.374 547.018L142.631 542.613Z" fill="url(#paint25_linear_0_1)"/>
<path d="M95.8446 530.043L103.5 500.833L103.542 500.673L124.223 517.722L116.382 546.986L95.8446 530.043Z" fill="url(#paint26_linear_0_1)"/>
<path d="M124.084 517.596L150.54 513.144L171.225 530.227L144.77 534.679L124.084 517.596Z" fill="url(#paint27_linear_0_1)"/>
<path d="M163.194 559.459L171.169 530.336L171.212 530.176L144.777 534.6L136.936 563.865L163.194 559.459Z" fill="url(#paint28_linear_0_1)"/>
<path d="M116.407 546.889L124.062 517.679L124.105 517.519L144.786 534.568L136.944 563.832L116.407 546.889Z" fill="url(#paint29_linear_0_1)"/>
</g>
<g filter="url(#filter3_f_0_1)">
<path d="M1582.53 224.851L1600.95 208.524L1625.36 211.758L1606.93 228.086L1582.53 224.851Z" fill="url(#paint30_linear_0_1)"/>
<path d="M1633.32 238.41L1625.37 211.87L1625.32 211.725L1606.9 228.021L1615.03 254.605L1633.32 238.41Z" fill="url(#paint31_linear_0_1)"/>
<path d="M1590.8 251.378L1582.56 224.927L1582.51 224.781L1606.89 227.992L1615.02 254.576L1590.8 251.378Z" fill="url(#paint32_linear_0_1)"/>
<path d="M1564.01 241.337L1582.43 225.01L1606.84 228.245L1588.41 244.572L1564.01 241.337Z" fill="url(#paint33_linear_0_1)"/>
<path d="M1614.8 254.897L1606.85 228.357L1606.8 228.211L1588.38 244.508L1596.51 271.092L1614.8 254.897Z" fill="url(#paint34_linear_0_1)"/>
<path d="M1572.28 267.864L1564.04 241.413L1563.99 241.267L1588.37 244.479L1596.5 271.063L1572.28 267.864Z" fill="url(#paint35_linear_0_1)"/>
</g>
<defs>
<filter id="filter0_dd_0_1" x="-4869.97" y="-386.493" width="12623.6" height="2462" filterUnits="userSpaceOnUse" color-interpolation-filters="sRGB">
<feFlood flood-opacity="0" result="BackgroundImageFix"/>
<feColorMatrix in="SourceAlpha" type="matrix" values="0 0 0 0 0 0 0 0 0 0 0 0 0 0 0 0 0 0 127 0" result="hardAlpha"/>
<feOffset/>
<feGaussianBlur stdDeviation="6.01111"/>
<feColorMatrix type="matrix" values="0 0 0 0 0.717647 0 0 0 0 0.847059 0 0 0 0 1 0 0 0 1 0"/>
<feBlend mode="normal" in2="BackgroundImageFix" result="effect1_dropShadow_0_1"/>
<feColorMatrix in="SourceAlpha" type="matrix" values="0 0 0 0 0 0 0 0 0 0 0 0 0 0 0 0 0 0 127 0" result="hardAlpha"/>
<feOffset/>
<feGaussianBlur stdDeviation="30.0556"/>
<feColorMatrix type="matrix" values="0 0 0 0 0.717647 0 0 0 0 0.847059 0 0 0 0 1 0 0 0 1 0"/>
<feBlend mode="normal" in2="effect1_dropShadow_0_1" result="effect2_dropShadow_0_1"/>
<feBlend mode="normal" in="SourceGraphic" in2="effect2_dropShadow_0_1" result="shape"/>
</filter>
<filter id="filter1_dd_0_1" x="-4692.19" y="-1074.94" width="10500.2" height="2047.87" filterUnits="userSpaceOnUse" color-interpolation-filters="sRGB">
<feFlood flood-opacity="0" result="BackgroundImageFix"/>
<feColorMatrix in="SourceAlpha" type="matrix" values="0 0 0 0 0 0 0 0 0 0 0 0 0 0 0 0 0 0 127 0" result="hardAlpha"/>
<feOffset/>
<feGaussianBlur stdDeviation="5"/>
<feColorMatrix type="matrix" values="0 0 0 0 0.717647 0 0 0 0 0.847059 0 0 0 0 1 0 0 0 1 0"/>
<feBlend mode="normal" in2="BackgroundImageFix" result="effect1_dropShadow_0_1"/>
<feColorMatrix in="SourceAlpha" type="matrix" values="0 0 0 0 0 0 0 0 0 0 0 0 0 0 0 0 0 0 127 0" result="hardAlpha"/>
<feOffset/>
<feGaussianBlur stdDeviation="25"/>
<feColorMatrix type="matrix" values="0 0 0 0 0.717647 0 0 0 0 0.847059 0 0 0 0 1 0 0 0 1 0"/>
<feBlend mode="normal" in2="effect1_dropShadow_0_1" result="effect2_dropShadow_0_1"/>
<feBlend mode="normal" in="SourceGraphic" in2="effect2_dropShadow_0_1" result="shape"/>
</filter>
<filter id="filter2_f_0_1" x="88.833" y="486" width="89.2471" height="88.1115" filterUnits="userSpaceOnUse" color-interpolation-filters="sRGB">
<feFlood flood-opacity="0" result="BackgroundImageFix"/>
<feBlend mode="normal" in="SourceGraphic" in2="BackgroundImageFix" result="shape"/>
<feGaussianBlur stdDeviation="2" result="effect1_foregroundBlur_0_1"/>
</filter>
<filter id="filter3_f_0_1" x="1557.03" y="198" width="83.3848" height="83.5751" filterUnits="userSpaceOnUse" color-interpolation-filters="sRGB">
<feFlood flood-opacity="0" result="BackgroundImageFix"/>
<feBlend mode="normal" in="SourceGraphic" in2="BackgroundImageFix" result="shape"/>
<feGaussianBlur stdDeviation="2" result="effect1_foregroundBlur_0_1"/>
</filter>
<linearGradient id="paint0_linear_0_1" x1="964" y1="-203.777" x2="964" y2="1082" gradientUnits="userSpaceOnUse">
<stop offset="0.149515" stop-opacity="0"/>
<stop offset="0.515209" stop-color="#111121"/>
</linearGradient>
<linearGradient id="paint1_linear_0_1" x1="995" y1="0" x2="995" y2="2144" gradientUnits="userSpaceOnUse">
<stop stop-color="#00A3FF" stop-opacity="0"/>
<stop offset="0.416667" stop-color="#1A83FF"/>
</linearGradient>
<linearGradient id="paint2_linear_0_1" x1="964" y1="0" x2="964" y2="2143" gradientUnits="userSpaceOnUse">
<stop stop-color="#5200FF" stop-opacity="0"/>
<stop offset="0.416667" stop-color="#631AFF"/>
</linearGradient>
<linearGradient id="paint3_linear_0_1" x1="841" y1="381.549" x2="841" y2="508" gradientUnits="userSpaceOnUse">
<stop stop-color="#111121"/>
<stop offset="1" stop-color="#111527"/>
</linearGradient>
<linearGradient id="paint4_linear_0_1" x1="841" y1="-169.5" x2="841" y2="900" gradientUnits="userSpaceOnUse">
<stop offset="0.149515" stop-opacity="0"/>
<stop offset="0.515209" stop-color="#111528"/>
<stop offset="0.651042" stop-color="#0A0D1A"/>
</linearGradient>
<linearGradient id="paint5_linear_0_1" x1="841" y1="0" x2="841" y2="1783" gradientUnits="userSpaceOnUse">
<stop stop-color="#5200FF" stop-opacity="0"/>
<stop offset="0.416667" stop-color="#631AFF"/>
</linearGradient>
<linearGradient id="paint6_linear_0_1" x1="841" y1="0" x2="841" y2="1783" gradientUnits="userSpaceOnUse">
<stop stop-color="#00A3FF" stop-opacity="0"/>
<stop offset="0.416667" stop-color="#1A83FF"/>
</linearGradient>
<linearGradient id="paint7_linear_0_1" x1="841" y1="-5" x2="841" y2="378" gradientUnits="userSpaceOnUse">
<stop stop-color="#111121" stop-opacity="0.75"/>
<stop offset="1" stop-color="#111121"/>
</linearGradient>
<linearGradient id="paint8_linear_0_1" x1="841" y1="426" x2="841" y2="1017.5" gradientUnits="userSpaceOnUse">
<stop stop-color="#111223"/>
<stop offset="1" stop-color="#121222" stop-opacity="0.28"/>
</linearGradient>
<linearGradient id="paint9_linear_0_1" x1="1642.51" y1="555.304" x2="1662.48" y2="614.988" gradientUnits="userSpaceOnUse">
<stop stop-color="#C193FF"/>
<stop offset="1" stop-color="#EDDBFF"/>
</linearGradient>
<linearGradient id="paint10_linear_0_1" x1="1670.28" y1="555.273" x2="1719.05" y2="701.013" gradientUnits="userSpaceOnUse">
<stop stop-color="#AD78FF"/>
<stop offset="1" stop-color="#C193FF"/>
</linearGradient>
<linearGradient id="paint11_linear_0_1" x1="1605.26" y1="560.437" x2="1633.19" y2="698.101" gradientUnits="userSpaceOnUse">
<stop stop-color="#C193FF"/>
<stop offset="1" stop-color="#8C4BFF"/>
</linearGradient>
<linearGradient id="paint12_linear_0_1" x1="1578.61" y1="532.697" x2="1598.58" y2="592.382" gradientUnits="userSpaceOnUse">
<stop stop-color="#C193FF"/>
<stop offset="1" stop-color="#EDDBFF"/>
</linearGradient>
<linearGradient id="paint13_linear_0_1" x1="1606.38" y1="532.666" x2="1655.15" y2="678.406" gradientUnits="userSpaceOnUse">
<stop stop-color="#AD78FF"/>
<stop offset="1" stop-color="#C193FF"/>
</linearGradient>
<linearGradient id="paint14_linear_0_1" x1="1541.36" y1="537.831" x2="1569.29" y2="675.495" gradientUnits="userSpaceOnUse">
<stop stop-color="#C193FF"/>
<stop offset="1" stop-color="#8C4BFF"/>
</linearGradient>
<linearGradient id="paint15_linear_0_1" x1="43.9616" y1="119.162" x2="58.471" y2="168.145" gradientUnits="userSpaceOnUse">
<stop stop-color="#E8A95F"/>
<stop offset="1" stop-color="#FDF0D5"/>
</linearGradient>
<linearGradient id="paint16_linear_0_1" x1="66.4907" y1="119.923" x2="101.921" y2="239.533" gradientUnits="userSpaceOnUse">
<stop stop-color="#E8A95F"/>
<stop offset="1" stop-color="#F3C481"/>
</linearGradient>
<linearGradient id="paint17_linear_0_1" x1="13.5953" y1="122.271" x2="32.3505" y2="234.739" gradientUnits="userSpaceOnUse">
<stop stop-color="#F3C481"/>
<stop offset="1" stop-color="#D9822F"/>
</linearGradient>
<linearGradient id="paint18_linear_0_1" x1="7.94888" y1="150.274" x2="22.4583" y2="199.257" gradientUnits="userSpaceOnUse">
<stop stop-color="#E8A95F"/>
<stop offset="1" stop-color="#FDF0D5"/>
</linearGradient>
<linearGradient id="paint19_linear_0_1" x1="30.478" y1="151.035" x2="65.908" y2="270.645" gradientUnits="userSpaceOnUse">
<stop stop-color="#E8A95F"/>
<stop offset="1" stop-color="#F3C481"/>
</linearGradient>
<linearGradient id="paint20_linear_0_1" x1="-22.4174" y1="153.383" x2="-3.66224" y2="265.851" gradientUnits="userSpaceOnUse">
<stop stop-color="#F3C481"/>
<stop offset="1" stop-color="#D9822F"/>
</linearGradient>
<linearGradient id="paint21_linear_0_1" x1="91.1061" y1="125.642" x2="105.616" y2="174.625" gradientUnits="userSpaceOnUse">
<stop stop-color="#E8A95F"/>
<stop offset="1" stop-color="#FDF0D5"/>
</linearGradient>
<linearGradient id="paint22_linear_0_1" x1="113.635" y1="126.403" x2="149.065" y2="246.013" gradientUnits="userSpaceOnUse">
<stop stop-color="#E8A95F"/>
<stop offset="1" stop-color="#F3C481"/>
</linearGradient>
<linearGradient id="paint23_linear_0_1" x1="60.7398" y1="128.751" x2="79.495" y2="241.219" gradientUnits="userSpaceOnUse">
<stop stop-color="#F3C481"/>
<stop offset="1" stop-color="#D9822F"/>
</linearGradient>
<linearGradient id="paint24_linear_0_1" x1="130.764" y1="493.951" x2="123.379" y2="521.515" gradientUnits="userSpaceOnUse">
<stop stop-color="#61B270"/>
<stop offset="1" stop-color="#DDF8DA"/>
</linearGradient>
<linearGradient id="paint25_linear_0_1" x1="141.272" y1="500.889" x2="123.237" y2="568.197" gradientUnits="userSpaceOnUse">
<stop stop-color="#61B270"/>
<stop offset="1" stop-color="#89D890"/>
</linearGradient>
<linearGradient id="paint26_linear_0_1" x1="115.394" y1="486.569" x2="91.502" y2="545.609" gradientUnits="userSpaceOnUse">
<stop stop-color="#89D890"/>
<stop offset="1" stop-color="#328048"/>
</linearGradient>
<linearGradient id="paint27_linear_0_1" x1="151.327" y1="510.798" x2="143.941" y2="538.362" gradientUnits="userSpaceOnUse">
<stop stop-color="#61B270"/>
<stop offset="1" stop-color="#DDF8DA"/>
</linearGradient>
<linearGradient id="paint28_linear_0_1" x1="161.835" y1="517.735" x2="143.8" y2="585.043" gradientUnits="userSpaceOnUse">
<stop stop-color="#61B270"/>
<stop offset="1" stop-color="#89D890"/>
</linearGradient>
<linearGradient id="paint29_linear_0_1" x1="135.957" y1="503.416" x2="112.064" y2="562.455" gradientUnits="userSpaceOnUse">
<stop stop-color="#89D890"/>
<stop offset="1" stop-color="#328048"/>
</linearGradient>
<linearGradient id="paint30_linear_0_1" x1="1600.42" y1="206.315" x2="1608.08" y2="231.354" gradientUnits="userSpaceOnUse">
<stop stop-color="#65C9E7"/>
<stop offset="1" stop-color="#CCF6FB"/>
</linearGradient>
<linearGradient id="paint31_linear_0_1" x1="1611.98" y1="206.604" x2="1630.67" y2="267.748" gradientUnits="userSpaceOnUse">
<stop stop-color="#3EA4CF"/>
<stop offset="1" stop-color="#65C9E7"/>
</linearGradient>
<linearGradient id="paint32_linear_0_1" x1="1584.88" y1="208.044" x2="1594.99" y2="265.602" gradientUnits="userSpaceOnUse">
<stop stop-color="#65C9E7"/>
<stop offset="1" stop-color="#0C75AF"/>
</linearGradient>
<linearGradient id="paint33_linear_0_1" x1="1581.91" y1="222.801" x2="1589.56" y2="247.841" gradientUnits="userSpaceOnUse">
<stop stop-color="#65C9E7"/>
<stop offset="1" stop-color="#CCF6FB"/>
</linearGradient>
<linearGradient id="paint34_linear_0_1" x1="1593.46" y1="223.09" x2="1612.15" y2="284.234" gradientUnits="userSpaceOnUse">
<stop stop-color="#3EA4CF"/>
<stop offset="1" stop-color="#65C9E7"/>
</linearGradient>
<linearGradient id="paint35_linear_0_1" x1="1566.36" y1="224.53" x2="1576.47" y2="282.088" gradientUnits="userSpaceOnUse">
<stop stop-color="#65C9E7"/>
<stop offset="1" stop-color="#0C75AF"/>
</linearGradient>
<clipPath id="clip0_0_1">
<rect width="1682" height="929" fill="white"/>
</clipPath>
<clipPath id="clip1_0_1">
<rect width="1682" height="529" fill="white" transform="translate(1682 373) rotate(-180)"/>
</clipPath>
</defs>
</svg>
